<?xml version="1.0" encoding="iso-8859-1"?>
<!-- Generator: Adobe Illustrator 19.0.0, SVG Export Plug-In . SVG Version: 6.00 Build 0)  -->
<svg version="1.1" id="Layer_1" xmlns="http://www.w3.org/2000/svg" xmlns:xlink="http://www.w3.org/1999/xlink" x="0px" y="0px"
	 viewBox="0 0 512.001 512.001" style="enable-background:new 0 0 512.001 512.001;" xml:space="preserve">
<g>
	<g>
		<path d="M497.338,426.499L372.756,301.916C451.897,168.073,353.946-0.402,200.36,0.001C89.846,0.032,0.044,89.828,0.013,200.348
			c0.043,154.128,168.176,251.477,301.916,172.394l124.584,124.584c9.456,9.468,22.038,14.674,35.413,14.674
			c13.381-0.001,25.957-5.208,35.414-14.676C516.871,477.804,516.871,446.021,497.338,426.499z M33.404,200.348
			c0.013-92.003,74.842-166.943,166.956-166.956c134.6,0.017,164.283,152.146,99.209,225.812
			c-60.654,68.262-198.439,55.282-198.357-58.855c-0.039-54.003,35.355-99.913,99.149-100.174
			c68.915,0.416,81.254,77.327,49.547,113.125c-64.701,72.192-122.561-45.51-49.547-46.343c9.22,0,16.696-7.475,16.696-16.696
			c0-9.22-7.475-16.696-16.696-16.696c-38.963-0.265-66.301,29.173-66.343,66.782c0.087,76.039,95.853,86.75,140.942,35.029
			c51.299-58.404,21.747-169.022-74.599-168.593c-81.657-0.269-132.499,60.852-132.539,133.565
			c0.104,184.216,286.017,179.866,297.779-22.62C397.742,413.522,33.439,433.58,33.404,200.348z M473.73,473.717
			c-3.261,3.261-7.533,4.892-11.804,4.892c-4.271,0-8.544-1.631-11.804-4.892L329.599,353.194
			c8.509-7.205,16.403-15.1,23.609-23.609L473.73,450.108C480.251,456.629,480.251,467.195,473.73,473.717z"/>
	</g>
</g>
<g>
</g>
<g>
</g>
<g>
</g>
<g>
</g>
<g>
</g>
<g>
</g>
<g>
</g>
<g>
</g>
<g>
</g>
<g>
</g>
<g>
</g>
<g>
</g>
<g>
</g>
<g>
</g>
<g>
</g>
</svg>
